# xmcd
#
# Track frame offsets:
#	150
#	17403
#	34862
#	49906
#	68034
#	86197
#	100913
#	120213
#	134819
#	152120
#	168291
#	183390
#	203242
#	224367
#	240274
#
# Disc length: 3467 seconds
#
# Revision: 1
# Processed by: cddbd v1.5.1PL0 Copyright (c) Steve Scherf et al.
# Submitted via: audiograbber 1.83.01
#
DISCID=ca0d890f
DTITLE=V - CB60201
DYEAR=1900
DGENRE=Karaoke Country
TTITLE0=Tim McGraw - My Next Thirty Years
TTITLE1=Nickel Creek - Reasons Why
TTITLE2=Randy Travis - Little Left Of Center, A
TTITLE3=Wilkinsons, The - Shame On Me
TTITLE4=Steve Holy - Blue Moon
TTITLE5=Diamond Rio - Stuff
TTITLE6=Tara Lyn Hart - That's When You Came Along
TTITLE7=Gary Allan - Right Where I Need To Be
TTITLE8=Toby Keith - Country Comes To Town
TTITLE9=Lace - Kiss 'Em All
TTITLE10=Tracy Lawrence - Lonely
TTITLE11=Chely Wright - She Went Out For Cigarettes
TTITLE12=Garth Brooks - When You Come Back To Me Again
TTITLE13=Sonja Issacs - Since I Gave My Heart Away
TTITLE14=Vince Gill - Feels Like Love
EXTD=Chartbuster
EXTT0=
EXTT1=
EXTT2=
EXTT3=
EXTT4=
EXTT5=
EXTT6=
EXTT7=
EXTT8=
EXTT9=
EXTT10=
EXTT11=
EXTT12=
EXTT13=
EXTT14=
PLAYORDER=
